<?xml version="1.0" standalone="no"?>
<!DOCTYPE svg PUBLIC "-//W3C//DTD SVG 20010904//EN"
 "http://www.w3.org/TR/2001/REC-SVG-20010904/DTD/svg10.dtd">
<svg version="1.0" xmlns="http://www.w3.org/2000/svg"
 width="700.000000pt" height="700.000000pt" viewBox="0 0 700.000000 700.000000"
 preserveAspectRatio="xMidYMid meet">
<metadata>
Created by potrace 1.11, written by Peter Selinger 2001-2013
</metadata>
<g transform="translate(0.000000,700.000000) scale(0.100000,-0.100000)"
fill="#000000" stroke="none">
<path d="M3402 5480 c1 -894 3 -990 17 -985 8 3 94 52 191 107 191 111 230
132 234 127 1 -2 58 -101 126 -219 68 -118 179 -309 245 -425 67 -115 133
-230 147 -255 14 -25 65 -112 113 -195 48 -82 97 -166 107 -185 11 -19 37 -64
58 -100 20 -36 42 -75 48 -86 11 -20 -2 -29 -203 -145 -118 -68 -214 -129
-213 -135 5 -21 203 -363 211 -364 4 0 51 25 105 57 53 31 122 70 152 88 30
17 143 83 250 145 107 62 216 124 242 139 26 14 47 30 48 34 1 5 -94 175 -211
379 -118 203 -223 386 -235 406 -56 98 -256 445 -339 587 -79 136 -124 215
-265 460 -91 158 -232 401 -236 404 -2 2 -36 -15 -75 -38 -39 -22 -75 -41 -78
-41 -4 0 -7 110 -7 245 l0 244 31 -18 c16 -10 50 -30 75 -44 25 -14 187 -107
360 -207 173 -101 335 -194 360 -208 25 -13 70 -39 100 -57 30 -18 71 -42 90
-53 112 -63 687 -396 696 -403 7 -6 11 -373 12 -1248 0 -1146 -1 -1240 -16
-1254 -14 -11 -251 -151 -455 -266 -18 -10 -55 -32 -83 -48 -27 -17 -70 -41
-95 -55 -54 -30 -309 -178 -599 -346 -118 -69 -231 -134 -250 -144 -19 -11
-79 -45 -132 -76 l-97 -56 1 -248 c1 -136 3 -248 5 -248 4 0 1012 580 1078
621 17 10 57 33 90 52 33 18 116 66 184 105 68 40 126 72 129 72 3 0 13 6 21
14 9 7 45 30 81 49 36 20 178 101 315 181 l250 145 0 1497 0 1498 -254 148
c-140 81 -255 148 -256 148 -1 0 -80 46 -176 101 -96 56 -189 110 -207 121
-56 31 -162 92 -292 168 -69 39 -143 82 -165 95 -83 47 -292 168 -345 200 -30
18 -75 44 -100 57 -25 14 -155 89 -289 167 -133 77 -244 141 -246 141 -2 0
-34 19 -71 42 -81 48 -170 98 -177 98 -3 0 -5 -446 -5 -990z"/>
<path d="M2880 6177 c-47 -27 -103 -59 -125 -71 -22 -13 -112 -65 -200 -116
-88 -51 -175 -101 -193 -111 -97 -55 -889 -513 -897 -519 -5 -4 -32 -20 -60
-35 -80 -44 -516 -295 -557 -321 l-38 -24 2 -1493 1 -1493 309 -180 c170 -98
328 -190 351 -203 23 -13 112 -64 197 -114 85 -49 175 -101 200 -115 25 -14
101 -58 170 -97 69 -40 141 -82 160 -93 19 -11 118 -68 220 -127 102 -59 302
-175 445 -257 143 -83 269 -156 280 -163 11 -7 23 -13 27 -14 4 -1 56 -31 115
-66 59 -35 109 -63 111 -61 2 2 3 66 3 142 0 77 0 523 0 992 l-1 852 -67 -36
c-38 -20 -72 -40 -78 -44 -20 -15 -274 -160 -285 -162 -6 -2 -23 20 -39 47
-15 28 -61 106 -101 175 -40 69 -82 141 -93 160 -26 47 -229 398 -337 585
-255 442 -290 503 -290 512 0 6 96 66 214 134 l215 123 -24 40 c-142 248 -179
313 -188 324 -8 10 -15 9 -36 -4 -14 -10 -100 -60 -191 -112 -91 -52 -178
-103 -195 -112 -16 -10 -110 -64 -208 -120 -137 -78 -177 -106 -172 -118 6
-16 178 -315 505 -882 101 -173 192 -331 202 -350 11 -19 37 -64 58 -100 21
-36 47 -81 58 -100 10 -19 61 -107 112 -195 51 -88 101 -173 110 -190 56 -99
215 -374 227 -393 10 -16 18 -20 26 -14 7 5 42 26 80 46 l67 37 0 -245 c0
-136 -2 -246 -5 -246 -3 0 -22 10 -43 23 -20 13 -44 26 -52 30 -8 4 -22 11
-30 17 -19 13 -292 170 -295 170 -1 0 -55 32 -119 70 -65 39 -119 70 -120 70
-2 0 -124 70 -272 156 -148 86 -292 169 -320 185 -28 15 -103 58 -165 95 -63
37 -139 80 -169 97 -30 16 -73 42 -95 56 l-40 27 0 1243 0 1243 83 49 c46 27
86 49 88 49 3 0 21 11 42 24 20 14 60 37 87 53 55 31 261 149 285 163 68 41
153 90 155 90 3 0 190 108 225 130 13 8 233 135 349 201 25 14 87 50 136 79
50 28 130 75 178 103 49 28 91 55 93 61 2 6 3 120 2 252 l-3 241 -85 -50z"/>
</g>
</svg>
