<?xml version="1.0" encoding="utf-8"?>
<!-- Generator: Adobe Illustrator 19.2.1, SVG Export Plug-In . SVG Version: 6.00 Build 0)  -->
<svg version="1.1" xmlns="http://www.w3.org/2000/svg" xmlns:xlink="http://www.w3.org/1999/xlink" x="0px" y="0px"
	 viewBox="0 0 140 140" enable-background="new 0 0 140 140" xml:space="preserve">
<g id="guides" display="none">
	<circle display="inline" fill="none" stroke="#000000" stroke-miterlimit="10" cx="70" cy="70" r="50"/>
	<polygon display="inline" fill="none" stroke="#000000" stroke-miterlimit="10" points="70,120 22.4,85.5 40.6,29.5 99.4,29.5 
		117.6,85.5 	"/>
	<circle display="inline" fill="none" stroke="#000000" stroke-miterlimit="10" cx="70" cy="70" r="60"/>
	<polygon display="inline" fill="none" stroke="#000000" stroke-miterlimit="10" points="70,130 12.9,88.5 34.7,21.5 105.3,21.5 
		127.1,88.5 	"/>
	<polyline display="inline" fill="none" stroke="#000000" stroke-miterlimit="10" points="99.4,29.5 105.3,21.5 70,70 	"/>
	<line display="inline" fill="none" stroke="#000000" stroke-miterlimit="10" x1="117.6" y1="85.5" x2="70" y2="70"/>
	<line display="inline" fill="none" stroke="#000000" stroke-miterlimit="10" x1="127.1" y1="88.5" x2="117.6" y2="85.5"/>
	<line display="inline" fill="none" stroke="#000000" stroke-miterlimit="10" x1="70" y1="130" x2="70" y2="70"/>
	<line display="inline" fill="none" stroke="#000000" stroke-miterlimit="10" x1="22.4" y1="85.5" x2="70" y2="70"/>
	<line display="inline" fill="none" stroke="#000000" stroke-miterlimit="10" x1="12.9" y1="88.5" x2="22.4" y2="85.5"/>
	<line display="inline" fill="none" stroke="#000000" stroke-miterlimit="10" x1="70" y1="70" x2="34.7" y2="21.5"/>
	<line display="inline" fill="none" stroke="#000000" stroke-miterlimit="10" x1="122.3" y1="87" x2="17.7" y2="87"/>
</g>
<g id="log_constructed">
	<polygon points="105.5,82.7 99.4,91 41,91 34.7,82.8 	"/>
	<polygon points="99.4,29.5 105.3,21.5 127.1,88.5 70,130 12.9,88.5 34.7,21.5 40.6,29.5 22.4,85.5 70.1,120 117.6,85.8 	"/>
</g>
<g id="logotype" display="none">
	<path display="inline" d="M139,70V0h-10v120h50V70H139z M169,110h-30V80h30V110z"/>
	<polygon display="inline" points="92.6,72.5 85.3,83 15.1,83 7.6,73 	"/>
	<polygon display="inline" points="85.3,8.2 92.4,-1.5 118.6,79.1 50,129 -18.6,79.1 7.6,-1.5 14.6,8.2 -7.2,75.5 50.1,117 
		107.2,75.9 	"/>
</g>
<g id="byline" display="none">
</g>
</svg>
